<?xml version="1.0" standalone="no"?>
<!DOCTYPE svg PUBLIC "-//W3C//DTD SVG 20010904//EN"
 "http://www.w3.org/TR/2001/REC-SVG-20010904/DTD/svg10.dtd">
<svg version="1.0" xmlns="http://www.w3.org/2000/svg"
 width="400.000000pt" height="400.000000pt" viewBox="0 0 400.000000 400.000000"
 preserveAspectRatio="xMidYMid meet">
<metadata>
Created by potrace 1.11, written by Peter Selinger 2001-2013
</metadata>
<g transform="translate(0.000000,400.000000) scale(0.100000,-0.100000)"
fill="#000000" stroke="none">
<path d="M1948 3285 c-2 -2 -32 -5 -68 -9 -66 -6 -91 -10 -145 -23 -16 -4 -32
-7 -35 -8 -73 -14 -216 -87 -277 -140 -191 -167 -196 -425 -10 -587 33 -29 71
-60 85 -69 l24 -17 -70 -55 c-140 -112 -193 -212 -193 -363 0 -130 53 -241
151 -315 110 -83 235 -124 645 -215 264 -58 366 -139 366 -290 0 -145 -110
-233 -339 -270 -190 -30 -391 -6 -542 64 -36 17 -103 55 -150 86 l-85 55 -3
-122 c-3 -141 -9 -131 117 -193 309 -151 856 -122 1096 59 179 135 237 356
143 542 -12 22 -52 72 -89 111 -38 39 -69 73 -69 76 0 3 33 28 73 56 42 30 85
72 104 99 36 55 74 164 77 225 13 234 -184 419 -543 509 -63 16 -128 32 -145
35 -74 13 -286 66 -335 85 -150 56 -207 150 -170 282 12 45 71 108 128 137
119 60 333 80 506 47 138 -27 219 -59 389 -156 60 -33 111 -60 112 -58 8 8 6
229 -2 237 -5 5 -45 30 -89 54 -115 66 -234 103 -389 121 -56 7 -263 14 -268
10z m-13 -951 c38 -8 77 -17 85 -19 187 -42 268 -78 356 -158 130 -118 139
-284 21 -398 -56 -55 -111 -73 -199 -66 -40 3 -84 8 -98 12 -14 3 -29 7 -35 8
-37 9 -233 60 -245 65 -8 3 -20 6 -26 7 -6 2 -36 15 -66 29 -72 34 -134 96
-166 165 -21 46 -24 63 -19 130 6 94 30 147 87 186 90 62 164 72 305 39z"/>
<path d="M848 3128 c-136 -183 -285 -385 -313 -422 -11 -15 -34 -46 -51 -69
-18 -23 -125 -168 -239 -322 -114 -154 -212 -285 -217 -291 -5 -7 154 -235
453 -645 254 -349 464 -640 466 -646 14 -37 18 20 18 269 l0 273 -70 95 c-39
52 -105 142 -147 200 -43 58 -85 114 -92 125 -8 11 -58 79 -111 150 -54 72
-102 140 -107 152 -9 19 20 63 249 375 143 194 263 360 268 368 8 12 15 540 8
540 -1 0 -53 -68 -115 -152z"/>
<path d="M3030 2969 l0 -265 86 -118 c47 -65 116 -160 153 -210 133 -180 237
-322 270 -367 l33 -47 -104 -138 c-57 -76 -111 -150 -120 -164 -9 -14 -84
-117 -167 -230 l-151 -205 0 -279 c0 -154 2 -277 3 -275 2 2 112 153 244 334
132 182 342 470 466 642 125 171 227 314 227 318 0 3 -63 91 -139 193 -168
226 -329 442 -584 787 -105 142 -197 266 -204 275 -10 12 -12 -40 -13 -251z"/>
</g>
</svg>
