<svg version="1" xmlns="http://www.w3.org/2000/svg" width="174.667" height="174.667" viewBox="0 0 131.000000 131.000000"><path d="M57 1c-8.5 2.5-16.5 9.2-20.1 16.8-2.1 4.6-2.9 9.3-3.2 20.2l-.2 5.5-4.7.2c-2.6.1-6.1 1-7.8 1.9-5.8 3.5-6 4.8-6 42.1 0 32.1.1 34 2 37.1 3.7 6.1 4.8 6.2 48 6.2s44.3-.1 48-6.2c1.9-3.1 2-5 2-37.1 0-37.3-.2-38.6-6.1-42.1-1.7-1-5.1-1.8-7.8-1.9h-4.7l-.2-8.7C96 19 90.7 9.5 78.5 3.3 73.3.6 62.3-.6 57 1zm16.7 13.7c3.2 1.5 7.2 6 8.8 9.8.4 1.1.9 5.9 1 10.6l.3 8.6H65.4c-15.8-.1-18.4-.3-18.8-1.6-.3-.9-.4-5.1-.2-9.3.3-6.6.7-8.4 3.1-11.8 5.6-8 15.2-10.5 24.2-6.3zm-2.8 61.7c7.3 3.8 8.6 12.9 2.8 19.2-3.5 3.9-8.6 5-13.7 3.1-6-2.3-9.3-12.6-5.7-17.8 3.9-5.5 10.9-7.4 16.6-4.5z"/></svg>