<?xml version="1.0" standalone="no"?>
<!DOCTYPE svg PUBLIC "-//W3C//DTD SVG 20010904//EN"
 "http://www.w3.org/TR/2001/REC-SVG-20010904/DTD/svg10.dtd">
<svg version="1.0" xmlns="http://www.w3.org/2000/svg"
 width="86.000000pt" height="86.000000pt" viewBox="0 0 86.000000 86.000000"
 preserveAspectRatio="xMidYMid meet">
<metadata>
Created by potrace 1.11, written by Peter Selinger 2001-2013
</metadata>
<g transform="translate(0.000000,86.000000) scale(0.100000,-0.100000)"
fill="#000000" stroke="none">
<path d="M378 815 c-93 -23 -155 -97 -159 -189 -2 -39 -7 -49 -28 -59 -44 -21
-48 -44 -47 -257 1 -177 3 -201 19 -217 16 -16 41 -18 267 -18 226 0 251 2
267 18 16 16 18 40 19 217 1 212 -3 235 -46 257 -20 10 -24 20 -26 62 -4 81
-44 139 -120 172 -56 25 -90 28 -146 14z m110 -81 c33 -23 52 -67 49 -115 l-3
-44 -105 0 -104 0 -1 45 c-2 79 39 130 106 130 20 0 46 -7 58 -16z m-4 -366
c24 -34 20 -73 -10 -97 -34 -26 -54 -26 -88 0 -53 41 -21 119 48 119 25 0 39
-7 50 -22z"/>
</g>
</svg>
