
<svg version="1" xmlns="http://www.w3.org/2000/svg" width="929.333" height="929.333" viewBox="0 0 697.000000 697.000000"><path d="M348.5 109.1c-23.5 2-41.4 8-56.9 19.1-5.2 3.7-15.2 13.3-15.9 15.3-.4.8-1.1 1.5-1.7 1.5-.6 0-.9.4-.6.9.3.5-.1 1.4-.9 2.1-.8.6-2.4 3.3-3.6 5.8-1.3 2.6-2.7 5-3.3 5.4-.6.4-.8.8-.3.8.4 0 .1 1.3-.8 3-.9 1.6-1.3 3-.9 3s0 .7-.7 1.7c-.8.9-1.3 1.8-1.1 2 .2.2-.2 2.9-.9 6.1-1.3 6.1-1.6 24.2-.4 30.7.3 2.2.8 4.8.9 5.7.1 1 .5 2.1.9 2.4.4.4.7 1.8.7 3 0 1.3.5 2.6 1.1 2.9.6.4.8 1.3.5 2.1-.3.8-.2 1.4.2 1.4s1.9 2.6 3.4 5.7c4.9 10.4 19.4 24.2 35.2 33.7 5.7 3.4 5.8 3.6 3.5 4.6-2.5 1-3.3 1.5-10.7 6.2-2.4 1.6-4.5 2.8-4.7 2.8-.7 0-4.5 3.2-6.4 5.2-.8 1-2 1.8-2.6 1.8-1.8.1-17.5 17.8-17.5 19.9 0 .6-.3 1.1-.8 1.1-.4 0-1.6 2-2.7 4.5s-2.3 4.5-2.8 4.5c-.4 0-.6.3-.5.7.1.5-.6 2.3-1.5 4-1 1.8-1.7 3.5-1.7 3.8-.1 1.9-1.4 6.5-1.9 6.5-.3 0-.7 1-.8 2.2 0 1.3-.4 3.6-.7 5.3-.6 2.9-1.4 11.3-1.6 16.5-.1 3.7 1.5 20.7 2.3 23 .2.8 1.4 4.9 2.7 9 2.6 8.9 9.7 22.9 14.2 28.5 7.3 8.9 21.1 21.3 23 20.8.4-.2.8.1.8.5 0 1 7.7 6.2 9.1 6.2.5 0 .9.3.9.7 0 .5 1 1.3 2.3 1.9 1.2.6 6.6 3.3 12 6.1 5.3 2.8 9.7 4.9 9.7 4.7 0-.3 1.5.3 3.3 1.3 1.7.9 3.5 1.6 4 1.5.4-.1.7.3.7 1 0 .6.3.8.7.5.3-.4 1.5 0 2.5 1 1 .9 1.8 1.2 1.8.7s.4-.5.8.1c.4.5 3.9 2.5 7.7 4.3 9.3 4.5 24.9 14.9 30.7 20.6 2.6 2.5 4.4 4.6 4.1 4.6-.3 0 .2.9 1.2 2s2.3 2.8 2.9 3.9c3.6 6.1 5.7 10.3 6 12.3.3 1.3.5 2.3.6 2.3 1.2 0 2 20.4.8 21.1-.4.3-.6 1-.2 1.5.3.5 0 1.6-.6 2.4-.7.8-.9 1.5-.5 1.5s.3.6-.3 1.2c-.6.7-1.1 1.6-1.1 2-.7 4.2-7.9 14.5-14 20-4.3 3.9-19.1 12.7-19.1 11.4 0-.2-1.5 0-3.2.5-2.8.8-8.4 1.7-12.3 2.1-2.2.2-13.2-1.3-16.8-2.3-3.2-.8-4.2-1.8-5.9-5.7-1.2-2.6-2.1-5-2-5.4.1-.4-.6-2.4-1.4-4.5l-2.7-6.3c-.6-1.4-1.1-2.7-1.2-3 0-.3-.6-1.5-1.3-2.6-.6-1.2-.8-2.4-.5-2.8.3-.3 0-.6-.7-.6s-1-.3-.7-.6c.4-.4-.2-1.9-1.3-3.4-1.1-1.6-2-3.3-2-3.9 0-.6-.4-1.1-1-1.1-.5 0-1-.7-1-1.5s-.5-1.5-1-1.5c-.6 0-1.4-.8-1.7-1.8-1-2.7-4-5-10-7.7-3.6-1.7-16.5-1.4-17.1.4-.2.5-.9.8-1.7.5-1.5-.6-8.4 5.9-10.2 9.6-3 6.5-3.3 8.1-3.6 17.3-.1 4.2.2 7.7.7 7.7.4 0 .6.9.3 2s-.1 2 .4 2 .9.8.9 1.8.8 2.9 1.7 4.2c1 1.4 1.7 2.7 1.6 3-.5 1.2 9.8 13 11.2 13 .4 0 2.2 1.1 3.9 2.4 9.3 7 26.3 12.4 40.4 12.7 2.8.1 5.2.5 5.2 1s.6.7 1.3.4c.6-.2 6.4-.6 12.7-.9 6.3-.3 13.9-1 16.9-1.6 3-.5 5.6-.8 5.9-.5.3.3 1 .1 1.6-.4.6-.4 3.4-1.4 6.1-2 6.4-1.6 19.8-7.8 27.1-12.7 3.1-2.1 8.5-6.5 11.9-9.9 6.5-6.3 13.2-14.5 11.9-14.5-.4 0 .2-1 1.3-2.2 1.9-2.2 3-4.3 3.1-6.2 0-.5.4-1.2.9-1.5.8-.6 3.1-6.1 3.8-9.1.2-.8.4-1.6.5-1.8.2-.1.4-1.1.5-2.2.1-1.1.3-2.1.5-2.3 1.5-1.9 3.4-28.9 2.1-31.2-.3-.5-.6-2.5-.8-4.5-.3-3.4-.9-7.2-1.3-7.8-.2-.1-.4-.7-.5-1.2-.1-.6-.3-1.1-.5-1.3-.1-.1-.3-1-.5-2s-.7-2.6-1.1-3.5c-.4-.9-.8-1.9-.9-2.2-.1-.3-1-2.3-2-4.5s-1.7-4.3-1.7-4.7c.1-.5-.2-.8-.8-.8-.5 0-1.7-1.4-2.5-3-1.7-3.2-15.6-18-16.9-18-.5 0-2.5-1.4-4.6-3-2.1-1.7-6.2-4.3-9.1-5.8-2.9-1.5-5.4-3.3-5.7-4.1-.3-.8 0-1.1.6-.7.6.3 1.3.2 1.7-.4.4-.6 1.1-.8 1.6-.5.5.4.9.1.9-.4 0-.6.6-1.1 1.4-1.1.7 0 1.9-.7 2.6-1.5.7-.9 1.5-1.3 1.7-1.1.3.2 1.3-.3 2.4-1.2 1.1-.9 2.3-1.7 2.6-1.7 2.3 0 20.7-17.9 25.8-25 4.9-6.9 11.6-19.6 13-24.8.2-.4.4-.9.5-1.2.1-.3.4-1 .5-1.5.1-.6.3-1.1.5-1.3.2-.3 1.1-3.8 1.4-5.7.1-.9.5-2 .9-2.6.3-.6.5-2.1.2-3.3-.2-1.1-.1-2.1.3-2.1.9 0 .9-26.6 0-27.5-.3-.4-.4-1.8-.2-3.1s0-2.4-.5-2.4-1-.8-1-1.8c-.1-1.9-.8-6.6-1.1-7-.2-.1-.3-.5-.4-1-.1-.4-.8-1.8-1.6-3.2-.7-1.4-1.3-2.7-1.3-3 .1-1.5-2-6-2.9-6-.5 0-.6-.4-.3-1 .3-.5.1-1-.5-1s-.8-.5-.5-1c.3-.6.1-1-.4-1-.6 0-1-.3-.9-.8.4-1-6.1-10.2-7.2-10.2-.6 0-.9-.4-.8-.9.3-.8-11.2-12.6-15.8-16.1-5.8-4.6-13.9-10-15-10-.7 0-1.4-.4-1.6-.9-.4-1.1-16.3-9.5-29.8-15.7-23.3-10.8-40.7-21.5-50.1-30.8-3.1-3-5.5-5.7-5.3-5.9.2-.2-.5-1.2-1.6-2.2-1.1-1-2-2.4-2-3.2 0-.7-.4-1.3-1-1.3-.5 0-.9-.3-.9-.8.1-.4 0-1-.1-1.5-2.5-7.5-3-23-.9-27.7.1-.3.3-1 .3-1.5.1-.6.8-2 1.4-3.3.7-1.2 1-2.6.8-3.1-.3-.5.1-1.1.9-1.5.8-.3 1.5-1.2 1.5-1.9 0-.8.7-2 1.5-2.7.9-.7 1.4-1.5 1.1-1.7-.2-.2.6-1.4 1.8-2.7 1.1-1.2 2.9-3.1 3.8-4.2 7.8-8.9 24-15.2 37.8-14.6 1.9 0 4.6.1 6 .1 5.5.1 13 2.3 14 4 .5 1 .6 2.1.3 2.5-.3.3-.1.6.5.6.7 0 1.2.8 1.2 1.8s.7 2.8 1.6 4c.8 1.2 1.2 2.2.8 2.2-.3 0-.1.7.6 1.5s1 1.5.6 1.5 0 1.3.8 2.9c.9 1.6 1.2 3.1.9 3.5-.4.3 0 .6.7.6s1.1.3.7.6c-.3.4 0 1.9.9 3.5.8 1.6 1.3 3.1 1.2 3.3-.2.2.5 1.3 1.5 2.3.9 1.1 1.4 2.3 1 2.6-.3.4 0 .7.7.7s1.1.3.7.6c-.3.3.2 1.5 1.1 2.6 3.7 4.4 4.8 5.7 6.2 7.7.8 1.2 1.9 2.1 2.4 2.1s1.8.7 2.8 1.7c2.6 2.4 16.1 3 20.9.9 3.5-1.5 10.9-7.6 9.3-7.6-.5 0-.1-.5.9-1.1.9-.6 1.5-1.4 1.2-2-.4-.5-.1-.9.4-.9.6 0 1-.3 1-.8-.1-.4 0-.9.1-1.2 1.2-3.2 2.1-19.6 1.1-21.5-.7-1.3-1-2.3-1.7-6.3-.4-1.7-1-3.2-1.5-3.2s-.9-.5-.9-1.1c0-1.6-6-10-9.5-13.2-3.4-3.2-12.3-8.6-17.5-10.7-1.9-.7-3.9-1.7-4.5-2.1-1.4-1-14-3.6-20.5-4.3-10-1.1-20.4-1.2-28.5-.5zm-1 176.8c7.7 3.8 17.3 9.1 21.2 11.8 8.4 5.6 22.3 17.9 22.3 19.7 0 .6.8 1.6 1.9 2.3 2.1 1.3 9.7 16.3 10.5 20.8.2 1.6.8 4.1 1.1 5.5 1 3.7 1.3 17 .4 17.6-.4.2-.6 1.6-.3 3s.1 3.1-.4 3.8c-.5.6-.8 1.9-.7 2.8.2 1-.1 1.8-.6 1.8-.6 0-.7.4-.4 1 .3.5.3 1.6-.2 2.2-.4.7-.8 1.9-.9 2.6-.2.7-2 4.8-4.1 9-2.6 5.2-6.2 10.2-11.3 15.6-11.9 12.5-24 20.8-24 16.4 0-.6-.3-.9-.6-.5-.3.3-3.6-1.1-7.2-3-3.7-2-8-4.3-9.7-5.1-1.6-.8-3.2-1.8-3.5-2.1-.3-.3-1.1-.7-1.8-.9-.7-.1-3.5-1.8-6.2-3.7-2.7-1.9-5.3-3.5-5.7-3.5-3-.1-25.3-20.1-25.3-22.6 0-.8-.4-1.4-1-1.4-.5 0-2.9-4.2-5.4-9.3-4-8.4-6-15.7-5.7-21.4 0-1.2-.3-2.4-.7-2.7-.5-.3-.7-2-.5-3.8.2-1.8.5-5.1.6-7.4.2-2.2.7-4.6 1.1-5.3.4-.6.5-1.8.2-2.6s-.1-1.5.5-1.5c.5 0 .9-.6.7-1.3-.3-1.4 3-10.7 4.3-12.2.5-.5.9-1.5.9-2.3 0-.8.8-2.4 1.8-3.7.9-1.2 2.4-3.3 3.2-4.5 2.3-3.4 8.7-10 9.6-10 .5 0 1.5-.9 2.2-2 .7-1.1 1.9-2 2.7-2 .8 0 1.5-.4 1.5-.9s.8-1.1 1.8-1.5c.9-.3 3.5-1.7 5.7-3.1 2.2-1.4 4.9-2.5 6-2.5 1.1 0 8.3 3.1 16 6.9zM200.4 116.2c-3.1 2.9-12.7 13.4-21.2 23.3-8.6 9.9-16.8 19.3-18.3 21-1.5 1.6-10.5 12-19.9 23-9.4 11-17.9 20.7-18.9 21.5-1 .8-2.2 2.3-2.7 3.2-.5.9-3.5 4.4-6.6 7.9-3.1 3.5-10.5 12-16.3 18.9-5.9 6.9-11.4 13.2-12.4 14-.9.8-2.3 2.4-3.1 3.6-.8 1.1-4 5-7.2 8.5-3.1 3.5-10.4 12-16.4 18.9-11.5 13.5-12.4 14.4-17.7 20.5-2 2.2-6.8 7.8-10.8 12.5-3.9 4.7-8.2 9.6-9.5 11-1.2 1.4-4.4 5-6.9 8-2.6 3-5.5 6.2-6.4 7-.9.8-2.6 2.9-3.6 4.7l-1.9 3.2 3 3.2c1.6 1.7 4.4 4.7 6.1 6.5 1.8 1.9 3.3 3.7 3.3 4.2s1.2 2.1 2.7 3.5c1.6 1.4 4.4 4.5 6.3 6.8 1.9 2.3 5 5.7 6.8 7.5 1.7 1.9 3.2 3.6 3.2 4 0 .3 1.5 2.2 3.2 4.1 7.5 8.1 9.4 10.4 12.3 13.9 1.7 2 4.7 5.4 6.8 7.5 2 2.2 3.7 4.2 3.7 4.5 0 .5 2 2.7 8.8 9.9 1.7 1.9 3.2 3.8 3.2 4.2 0 .5 1.6 2.3 3.5 4 1.9 1.8 3.5 3.5 3.5 3.9 0 .4 1 1.7 2.2 2.9 1.3 1.2 4.3 4.6 6.8 7.5 2.5 2.9 5.7 6.6 7.3 8.1 1.5 1.6 2.7 3.1 2.7 3.5 0 .6 4.1 5.2 9.8 10.9 1.7 1.8 3.2 3.6 3.2 4 0 .6 1.7 2.5 9.8 11 1.7 1.9 3.2 3.8 3.2 4.2 0 .5 1.3 1.9 3 3.3s3 2.9 3 3.3c0 .5 1.6 2.3 3.5 4.1 1.9 1.9 3.5 3.6 3.5 4 0 .4 1.5 2.2 3.3 4.1 6.8 7.2 8.7 9.4 8.7 10 0 .3 1.5 2 3.3 3.9 1.7 1.8 5 5.5 7.2 8.1 2.2 2.6 5.2 6 6.8 7.4 1.5 1.4 2.7 2.9 2.7 3.4s1.3 2.2 3 3.7c1.6 1.5 3 3.1 3 3.4 0 .3 1.4 1.9 3 3.4 1.7 1.6 3 3.2 3 3.5 0 .3 1.7 2.4 3.8 4.5 2 2.2 5.3 5.9 7.2 8.2 7.8 9.4 15.2 16 17.9 16 .7 0 1-17.1 1-46.8l-.1-46.9-2.4-1.8c-1.3-1-2.4-2.2-2.4-2.7s-1.5-2.4-3.2-4.2c-1.8-1.8-4.9-5.2-6.8-7.4-1.9-2.3-5.1-5.9-7-8.1-1.9-2.2-4.8-5.6-6.5-7.6-1.6-2-4.5-5.1-6.2-7-1.8-1.8-3.3-3.6-3.3-3.8 0-.3-1.5-2.1-3.2-4-1.8-1.9-4.9-5.3-6.8-7.5-1.9-2.3-5.1-5.9-7-8-1.9-2.2-4.8-5.5-6.5-7.4-1.6-1.9-4.6-5.3-6.5-7.5-1.9-2.3-4.8-5.7-6.5-7.7-1.6-2-4.5-5.2-6.2-7-1.8-1.8-3.3-3.5-3.3-3.9 0-.3-1.5-2-3.2-3.9-1.8-1.9-4.6-5.1-6.3-7.1-1.6-2-4.8-5.6-7-8-7.3-7.9-16-18-16.9-19.6-.6-.9-2-2.4-3.3-3.4-1.3-1-2.3-2.3-2.3-2.8 0-1.1 4.1-6.8 8-10.9 2.4-2.6 4.1-4.6 12-13.9 1.9-2.2 4.9-5.6 6.5-7.4 1.7-1.8 4.8-5.5 7-8.1 2.2-2.7 5.2-6.1 6.7-7.6 1.6-1.6 2.8-3.1 2.8-3.4 0-.3 1.5-2.1 3.3-3.9 1.7-1.9 5.2-5.8 7.7-8.7 2.5-2.9 5.3-5.9 6.3-6.8.9-.9 1.7-1.9 1.7-2.3 0-.4 1.7-2.4 3.8-4.5 2-2.2 5.5-6.1 7.7-8.8 2.2-2.7 5-5.8 6.3-6.9 1.2-1.1 2.2-2.4 2.2-2.8 0-.4 1.5-2.2 3.3-4.1 4.6-4.7 15.9-17.7 17.7-20.2 1.5-2.1 3.5-4.4 9.3-10.4 1.7-1.7 2.9-3.2 2.6-3.2-.3 0 1.4-2 3.7-4.4l4.2-4.5v-46.5c0-37.6-.3-46.6-1.3-46.6-.8 0-3.9 2.3-7.1 5.2zM487.7 111.7c-.2.5-.3 21-.3 45.8l.1 45 3.5 3.8c4.4 4.8 8.4 9.4 13.5 15.3 2.2 2.6 5.1 6 6.5 7.6 2.4 2.7 5.6 6.3 12.3 14 1.7 2.1 5 5.9 7.2 8.4s5.5 6.1 7.3 8c1.9 1.9 3.1 3.4 2.8 3.4-.6 0 4.7 6 9.7 11 1.5 1.5 2.7 3 2.7 3.3 0 .4 1.4 2 3 3.5 1.7 1.6 3 3.2 3 3.6 0 .4 1.5 2.3 3.3 4.1 6.3 6.6 9.7 10.3 9.7 10.9 0 .3 1.7 2.4 3.8 4.5 2 2.1 5.2 5.6 7 7.7 8.5 10 11.9 13.8 14 15.7 1.2 1.1 2.2 2.6 2.2 3.2 0 .7 1.4 2.2 3 3.5 1.7 1.3 3 2.7 3 3.2 0 .4 1.6 2.3 3.6 4.2 2 1.9 3.4 4.1 3.1 4.8-.6 1.6-29.8 35.4-33.3 38.5-1.3 1.2-2.4 2.5-2.4 2.8 0 .5-16.7 20.1-22.6 26.5-1.3 1.4-6 6.8-10.5 12s-9.3 10.9-10.8 12.5c-11.7 13.5-23 26.5-25.1 29-1.4 1.6-4 4.5-5.7 6.3-1.8 1.9-3.3 3.8-3.3 4.2 0 .5-1.2 1.9-2.8 3.2-1.5 1.2-3.8 3.9-5.2 5.8l-2.5 3.5v45.3c-.1 44.2 0 45.2 1.9 45.2 1 0 3.5-1.2 5.5-2.7 4.1-3 8.6-7.3 7.8-7.3-.3 0 1.1-1.8 3.1-3.9 2-2.1 5.3-5.7 7.2-8 5.3-6.2 8.8-10.2 12.8-14.4 1.9-2 3.2-3.7 2.8-3.7-.5 0 .9-1.6 3-3.5 2.2-1.9 3.6-3.5 3.2-3.5-.3 0 1-1.7 3-3.8 2-2.2 5.1-5.5 6.7-7.6 1.7-2 4.4-5.1 6-6.9 1.7-1.7 5-5.6 7.5-8.5 2.5-3 5.4-6.4 6.5-7.6 5-5.7 13.5-15.4 16.1-18.6 1.6-1.9 3.6-4.2 4.4-5.1.8-.8 3.8-4.2 6.5-7.5 2.8-3.2 6.9-7.9 9.3-10.5 2.3-2.5 4.2-4.8 4.2-5.1 0-.5 1.5-2.2 10.6-11.9 1.3-1.4 2.4-3.1 2.4-3.7 0-.7.4-1.2.9-1.2.7 0 15.1-16.1 17.6-19.7.6-.8 2.4-2.9 4-4.7 5.6-6 14.7-16.4 16.3-18.8.9-1.2 2.2-2.8 2.8-3.3 2.3-1.8 37.4-42.8 37.4-43.6 0-.4-1.3-2.1-3-3.7-1.6-1.7-3-3.3-3-3.5 0-.3-1.5-2.1-3.2-4-1.8-1.9-4.9-5.4-6.8-7.7-1.9-2.3-4.6-5.4-6-7-1.4-1.5-4.5-5.1-7-8-2.5-2.9-5.5-6.2-6.7-7.3-1.3-1.2-2.3-2.5-2.3-3.1 0-.6-1.3-2.2-3-3.6-1.6-1.4-3-2.8-3-3.2 0-.3-1.5-2.2-3.2-4.1-1.8-1.9-4.9-5.3-6.8-7.6-1.9-2.3-5.1-5.9-7-8-1.9-2.1-5.1-5.8-7-8.2-1.9-2.3-4.5-5.3-5.7-6.6-1.3-1.2-2.3-2.5-2.3-2.9 0-.3-1.8-2.5-4-4.8-7.7-7.9-9-9.3-9-10 0-.4-1.6-2.2-3.5-4-1.9-1.9-3.5-3.6-3.5-4 0-.3-1.4-1.9-3.1-3.6-1.8-1.6-2.8-3-2.4-3 .4 0-1-1.6-3.1-3.5s-3.5-3.5-3.1-3.5c.3 0-1-1.7-3.1-3.8-2-2.2-5.3-5.8-7.2-8.1-1.9-2.3-5-5.7-6.7-7.6-1.8-1.8-3.3-3.6-3.3-4 0-.3-1.5-1.9-3.2-3.6-1.8-1.6-2.9-2.9-2.5-2.9.4 0-.8-1.5-2.8-3.4-1.9-1.9-3.5-3.7-3.5-4.1 0-.3-1.7-2.3-3.7-4.4-2.1-2.1-5.4-5.7-7.3-8-1.9-2.4-4.7-5.6-6.2-7.1-1.6-1.6-2.8-3.1-2.8-3.5 0-.4-1.5-2.1-3.2-3.9-1.8-1.8-4.4-4.7-5.8-6.5-1.4-1.8-4.2-4.9-6.2-6.9-2.1-2-3.8-4-3.8-4.4 0-.5-1.2-2.1-2.7-3.7-1.6-1.6-5-5.4-7.8-8.5-11.2-12.8-18.1-18-19.8-14.9z"/></svg>
